<svg width="19" height="16" viewBox="0 0 19 16" fill="none" xmlns="http://www.w3.org/2000/svg">
<path d="M18.8205 10.1398C18.9192 10.1398 19 10.059 19 9.96032V8.70413C19 8.60543 18.9192 8.52467 18.8205 8.52467H4.14994C3.98927 8.12685 3.71335 7.78614 3.3576 7.54631C3.00185 7.30648 2.58252 7.17848 2.15348 7.17874C0.964581 7.17874 0 8.14332 0 9.33223C0 10.5211 0.964581 11.4857 2.15348 11.4857C3.0575 11.4857 3.8314 10.9294 4.14994 10.1398H7.52149V13.5495C7.52149 14.7877 8.52645 15.7927 9.7647 15.7927H18.8205C18.9192 15.7927 19 15.7119 19 15.6132V14.357C19 14.2583 18.9192 14.1776 18.8205 14.1776H9.7647C9.417 14.1776 9.1366 13.8972 9.1366 13.5495V10.1398H18.8205ZM7.59776 3.44828L11.4673 6.50354C11.6086 6.61794 11.8217 6.51475 11.8217 6.33081V4.12797H17.7438C17.8425 4.12797 17.9233 4.04722 17.9233 3.94852V2.60259C17.9233 2.50389 17.8425 2.42313 17.7438 2.42313H11.8217V0.2203C11.8217 0.0385999 11.6109 -0.0668309 11.4673 0.0475729L7.59776 3.10283C7.572 3.12364 7.55122 3.14996 7.53695 3.17985C7.52267 3.20973 7.51526 3.24243 7.51526 3.27555C7.51526 3.30867 7.52267 3.34138 7.53695 3.37126C7.55122 3.40115 7.572 3.42746 7.59776 3.44828Z" fill="#979797"/>
</svg>
