<svg width="19" height="16" viewBox="0 0 19 16" fill="none" xmlns="http://www.w3.org/2000/svg">
<path d="M18.8205 10.1402C18.9192 10.1402 19 10.0594 19 9.96072V8.70452C19 8.60582 18.9192 8.52507 18.8205 8.52507H4.14994C3.98927 8.12725 3.71335 7.78654 3.3576 7.54671C3.00185 7.30688 2.58252 7.17887 2.15348 7.17914C0.964581 7.17914 0 8.14372 0 9.33262C0 10.5215 0.964581 11.4861 2.15348 11.4861C3.0575 11.4861 3.8314 10.9298 4.14994 10.1402H7.52149V13.5499C7.52149 14.7881 8.52645 15.7931 9.7647 15.7931H18.8205C18.9192 15.7931 19 15.7123 19 15.6136V14.3574C19 14.2587 18.9192 14.178 18.8205 14.178H9.7647C9.417 14.178 9.1366 13.8976 9.1366 13.5499V10.1402H18.8205ZM7.69421 4.12837H13.6163V6.33121C13.6163 6.51291 13.8294 6.61834 13.9707 6.50393L17.8403 3.44868C17.9524 3.36119 17.9524 3.19295 17.8403 3.10547L13.9707 0.0479706C13.8272 -0.0664332 13.6163 0.0367545 13.6163 0.220698V2.42353H7.69421C7.59551 2.42353 7.51476 2.50429 7.51476 2.60299V3.94892C7.51476 4.04762 7.59551 4.12837 7.69421 4.12837Z" fill="#979797"/>
</svg>
