<svg width="17" height="20" viewBox="0 0 17 20" fill="none" xmlns="http://www.w3.org/2000/svg">
<path d="M7.76605 16.2105L16.2103 7.76395C16.2483 7.726 16.2661 7.67464 16.2617 7.62329L15.6923 0.893773C15.6767 0.719619 15.5405 0.583421 15.3663 0.567791L8.63683 0.000672079C8.58547 -0.00379343 8.53189 0.0140685 8.49616 0.0520253L0.0518893 8.4963C0.0186476 8.52987 0 8.5752 0 8.62245C0 8.66969 0.0186476 8.71503 0.0518893 8.7486L7.51375 16.2105C7.58296 16.2819 7.69684 16.2819 7.76605 16.2105ZM9.16375 1.65961L14.1785 2.08383L14.6027 7.09859L7.63878 14.0603L2.1998 8.62356L9.16375 1.65961ZM10.507 5.81766C10.6065 5.91718 10.7247 5.99612 10.8547 6.04997C10.9847 6.10382 11.1241 6.13153 11.2649 6.13152C11.4056 6.13151 11.545 6.10378 11.675 6.04991C11.805 5.99604 11.9232 5.91708 12.0227 5.81755C12.1222 5.71802 12.2011 5.59987 12.255 5.46983C12.3088 5.33979 12.3365 5.20042 12.3365 5.05968C12.3365 4.91893 12.3088 4.77956 12.2549 4.64954C12.2011 4.51951 12.1221 4.40136 12.0226 4.30185C11.923 4.20233 11.8049 4.1234 11.6748 4.06954C11.5448 4.01569 11.4054 3.98798 11.2647 3.98799C11.1239 3.988 10.9846 4.01573 10.8546 4.0696C10.7245 4.12348 10.6064 4.20243 10.5069 4.30196C10.4074 4.40149 10.3284 4.51965 10.2746 4.64968C10.2207 4.77972 10.193 4.91909 10.193 5.05984C10.193 5.20058 10.2208 5.33995 10.2746 5.46998C10.3285 5.6 10.4074 5.71815 10.507 5.81766ZM16.8422 10.6174L15.958 9.73548C15.9244 9.70223 15.8791 9.68359 15.8319 9.68359C15.7846 9.68359 15.7393 9.70223 15.7057 9.73548L7.62315 17.8024L2.31813 12.5108C2.28456 12.4775 2.23923 12.4589 2.19198 12.4589C2.14474 12.4589 2.0994 12.4775 2.06583 12.5108L1.18166 13.3927C1.14842 13.4263 1.12977 13.4716 1.12977 13.5189C1.12977 13.5661 1.14842 13.6115 1.18166 13.645L6.61172 19.0662L7.49589 19.9481C7.5651 20.0173 7.67897 20.0173 7.74819 19.9481L16.8422 10.8697C16.9114 10.8005 16.9114 10.6866 16.8422 10.6174Z" fill="#006EFF"/>
</svg>
