<svg width="1946" height="92" viewBox="0 0 1946 92" fill="none" xmlns="http://www.w3.org/2000/svg">
<g filter="url(#filter0_d_21_193)">
<rect width="1920" height="66" transform="translate(13 9)" fill="white"/>
<g clip-path="url(#clip0_21_193)">
<path d="M58.75 22C66.3735 22 72.7212 27.4819 74.0924 34.732L76.2669 34.7321C77.0263 34.7989 77.6443 34.8889 78.1209 35.002C78.4127 35.0837 78.7183 35.1834 79.0373 35.3014V35.2961C79.5758 35.4819 80.0995 35.6993 80.6063 35.9461L80.7075 35.9959L80.7081 35.9961L80.8302 36.0577L80.8626 36.0741C80.9456 36.1167 81.0281 36.1599 81.11 36.204C81.118 36.2083 81.1258 36.2125 81.1336 36.2167C81.3117 36.3129 81.4874 36.4127 81.6607 36.5161C81.6658 36.5191 81.6708 36.5221 81.6758 36.5251C81.715 36.5485 81.754 36.5721 81.7928 36.5959C81.8002 36.6004 81.8076 36.6049 81.8149 36.6094C81.8542 36.6335 81.8933 36.6578 81.9323 36.6823C81.9346 36.6837 81.9369 36.6851 81.9391 36.6866C81.9809 36.7128 82.0225 36.7392 82.0639 36.7659L82.0723 36.7713C82.1959 36.8509 82.3181 36.9323 82.439 37.0155L82.4632 37.0323C82.5004 37.058 82.5375 37.0839 82.5745 37.11C82.58 37.1139 82.5856 37.1178 82.5911 37.1217C82.6276 37.1476 82.6641 37.1737 82.7004 37.1999C82.7078 37.2052 82.7152 37.2106 82.7227 37.216C82.759 37.2424 82.7952 37.2689 82.8313 37.2956L82.8385 37.3009C82.8777 37.33 82.9169 37.3593 82.9558 37.3888C82.9599 37.3919 82.9639 37.395 82.968 37.398C83.0043 37.4255 83.0405 37.4533 83.0766 37.4813L83.0913 37.4927C83.1104 37.5074 83.1293 37.5222 83.1482 37.537C86.4716 40.1428 88.6079 44.2023 88.6079 48.7625C88.6079 56.5471 82.3825 62.8723 74.6553 62.9981L74.4207 63H43.1872C35.3518 63 29 56.6256 29 48.7625C29 43.6515 31.6836 39.1695 35.7139 36.6582L35.7055 36.6393C37.5343 35.4843 39.6443 34.7367 41.9091 34.5234L41.909 34.525H43.3555L43.7033 33.4628C45.5355 26.8516 51.5782 22 58.75 22ZM58.75 27.4135C53.6293 27.4135 49.3871 31.1924 48.6432 36.1239L48.6459 36.1126C48.3312 37.6502 48.1114 38.9041 47.9865 39.874H44.1957C43.995 39.877 43.7884 39.878 43.5761 39.877L43.5759 39.8801C43.5162 39.8777 43.4558 39.8762 43.3952 39.8752L43.2515 39.874C41.5038 39.874 39.8752 40.3858 38.5063 41.268V41.2914C36.0358 42.8536 34.3944 45.6157 34.3944 48.7625C34.3944 53.5871 38.2527 57.5074 43.0418 57.5853L43.1872 57.5865H74.3971L74.5763 57.585L74.7114 57.5818C79.3895 57.4303 83.1371 53.6114 83.2124 48.9068L83.2135 48.7625C83.2135 48.3604 83.1867 47.9645 83.1348 47.5766L83.1324 47.559L83.1321 47.5565L83.131 47.5486L83.1299 47.5402L83.125 47.5056L83.1243 47.5004L83.1194 47.4672L83.1192 47.4657L83.1183 47.4594L83.1129 47.4233L83.1114 47.4137L83.0998 47.3394C83.0949 47.3089 83.0898 47.2786 83.0846 47.2484L83.081 47.2272L83.0796 47.22L83.0772 47.206L83.077 47.2045L83.0752 47.195L83.0744 47.1905L83.0718 47.176L83.0704 47.1682L83.0659 47.1441L83.0635 47.1306V47.1305L83.0632 47.1291L83.0587 47.1053L83.0577 47.1001L83.0547 47.0841L83.0518 47.0691L83.0546 47.084L83.0508 47.0645H83.0509L83.0457 47.0377L83.0444 47.0316L83.0404 47.0115L83.0317 46.9681L83.026 46.941L83.0248 46.9353L83.023 46.9271L83.019 46.908L83.0166 46.8964C83.0126 46.8779 83.0086 46.8593 83.0044 46.8408C82.996 46.8027 82.9874 46.7648 82.9784 46.7269L82.9782 46.7261L82.9755 46.7143L82.9695 46.6895L82.9638 46.666L82.9629 46.6621L82.9616 46.6565L82.955 46.6299L82.957 46.6381L82.954 46.6258L82.9506 46.6121L82.9505 46.6117L82.9453 46.5911C82.9424 46.5795 82.9394 46.568 82.9365 46.5565L82.9405 46.5722L82.932 46.539L82.9266 46.518L82.9243 46.5095L82.9235 46.5061L82.9209 46.4968L82.9184 46.4873L82.9019 46.4257C82.8873 46.3723 82.8722 46.319 82.8567 46.266L82.8563 46.2646L82.851 46.2467L82.8482 46.2371L82.8509 46.2467L82.8342 46.1907C82.8266 46.1656 82.8189 46.1406 82.8111 46.1156L82.8062 46.1001L82.8043 46.0941L82.7996 46.0792L82.7971 46.0715L82.7923 46.0562L82.7909 46.052L82.7837 46.0298L82.7804 46.0195L82.788 46.0429C82.7706 45.9892 82.7529 45.9356 82.7345 45.8822L82.7311 45.8726L82.7182 45.8356L82.716 45.8292L82.71 45.812L82.7029 45.7922L82.6954 45.7713L82.687 45.7477L82.6846 45.7412L82.6808 45.7306L82.6762 45.7182L82.6754 45.7159L82.6516 45.6519C82.6152 45.5549 82.5772 45.4587 82.5374 45.3634L82.5326 45.352L82.5229 45.3286L82.5228 45.3283L82.5209 45.3238L82.5146 45.309L82.5127 45.3046L82.5102 45.2986L82.508 45.2935L82.5027 45.281L82.4974 45.2687L82.4831 45.2356L82.4924 45.2572L82.4831 45.2356L82.4718 45.2098L82.4767 45.221C82.4335 45.1221 82.3885 45.0241 82.3417 44.9271L82.3294 44.9015L82.3265 44.8955L82.3234 44.8892L82.3111 44.864L82.2986 44.8389L82.2934 44.8283L82.287 44.8154L82.2818 44.8052L82.2757 44.7929L82.2732 44.7881L82.2649 44.7715C82.2417 44.7255 82.218 44.6798 82.1939 44.6343C82.1714 44.5917 82.1486 44.5494 82.1255 44.5073L82.12 44.4975L82.1176 44.4931L82.1144 44.4872L82.1093 44.478L82.0993 44.4599L82.0931 44.4488L82.093 44.4488L82.0913 44.4457L82.0867 44.4376L82.084 44.4327L82.0704 44.4086L82.0745 44.4158L82.0671 44.4028L82.0596 44.3895L82.0468 44.3671L82.0427 44.3601L82.0405 44.3561L82.036 44.3486L82.0303 44.3386L82.0296 44.3374L82.025 44.3294L82.0235 44.3267L82.0207 44.3221L82.0136 44.3098L82.0205 44.3217L82.0081 44.3004L81.9717 44.2388C81.9578 44.2155 81.9439 44.1924 81.9298 44.1692L81.9233 44.1586L81.9193 44.1521L81.9103 44.1373L81.9088 44.135L81.9076 44.133L81.9055 44.1296L81.894 44.1109L81.8913 44.1066L81.8907 44.1055L81.883 44.0931L81.8786 44.0863L81.8715 44.0748L81.8727 44.0766L81.8591 44.0549L81.8521 44.0439L81.8468 44.0356L81.8425 44.0289L81.8322 44.0126L81.8131 43.9828L81.8123 43.9815L81.8119 43.9809L81.809 43.9764L81.788 43.944L81.7748 43.9237L81.7593 43.9L81.7641 43.9073C81.7349 43.8631 81.7055 43.8192 81.6756 43.7755L81.6671 43.7631L81.6662 43.7618L81.6654 43.7606L81.6596 43.7521L81.6549 43.7453L81.638 43.721L81.634 43.7152L81.634 43.7151L81.6296 43.709L81.6276 43.7061L81.616 43.6894L81.6109 43.6822L81.5934 43.6573L81.594 43.6583L81.5913 43.6545L81.5878 43.6495L81.5701 43.6247L81.5661 43.6189L81.5594 43.6096L81.5531 43.6009L81.5464 43.5916L81.5463 43.5916L81.5442 43.5886C81.5125 43.5447 81.4803 43.501 81.4478 43.4576L81.3987 43.3929L81.3857 43.376L81.364 43.348L81.3561 43.3377L81.3555 43.337L81.3431 43.321L81.3424 43.3201L81.304 43.2714L81.3021 43.2689H81.302L81.2825 43.2443L81.2737 43.2333L81.2736 43.2333L81.2682 43.2266L81.2527 43.2073L81.2473 43.2006L81.2429 43.1952L81.2372 43.1882L81.1895 43.1301C81.1718 43.1086 81.1539 43.0872 81.136 43.0658C81.1106 43.0358 81.0849 43.0058 81.0592 42.976L81.047 42.9621L81.039 42.9528L81.0307 42.9434L81.0117 42.9217L81.0219 42.9333L81.0117 42.9217L81.0079 42.9174L81.0021 42.9108L80.9884 42.8953L80.9797 42.8856L80.9642 42.8681L80.964 42.868L80.9554 42.8584L80.964 42.8679L80.9396 42.8409L80.9548 42.8578L80.9039 42.8015C80.8837 42.7794 80.8636 42.7575 80.8432 42.7357L80.8357 42.7277L80.8184 42.7092L80.8123 42.7027L80.7997 42.6894L80.7854 42.6743L80.7711 42.6593L80.7684 42.6564L80.7601 42.6478L80.7595 42.6473L80.747 42.6341L80.7431 42.6301L80.738 42.6249L80.705 42.5907C79.6433 41.5737 78.2973 40.9539 76.6669 40.7315L76.5907 40.7214L74.284 40.7243V42.2694C74.1089 43.3213 73.9068 44.0324 73.6778 44.4029L73.6773 44.4036L73.676 44.403L73.6758 44.4036L73.6701 44.4158L73.6669 44.4213C73.6521 44.4475 73.6406 44.4729 73.6323 44.4975L73.6013 44.5649C71.6348 48.7611 67.8682 51.9395 63.3003 53.0982L63.3003 54.4261H54.3719V46.6258H63.3003L63.3003 47.4137C64.8031 46.8023 66.1281 45.8425 67.1759 44.6342C68.186 43.0172 68.7849 40.8648 68.9725 38.1769L68.9724 37.6889L68.9707 37.4892L68.9669 37.3332C68.7914 31.875 64.3673 27.5026 58.9172 27.4148L58.75 27.4135ZM63.236 34.4871C64.4422 34.4871 65.4199 35.4685 65.4199 36.6789V38.6115C65.4199 39.822 64.4422 40.8033 63.236 40.8033C62.0299 40.8033 61.0521 39.822 61.0521 38.6115V36.6789C61.0521 35.4685 62.0299 34.4871 63.236 34.4871ZM54.5646 34.4871C55.7707 34.4871 56.7485 35.4685 56.7485 36.6789V38.6115C56.7485 39.822 55.7707 40.8033 54.5646 40.8033C53.3584 40.8033 52.3807 39.822 52.3807 38.6115V36.6789C52.3807 35.4685 53.3584 34.4871 54.5646 34.4871Z" fill="url(#paint0_linear_21_193)"/>
<path d="M104.616 37.2203H94.8056L94.4163 39.3893H98.0172L95.7983 52.0125H98.426L100.645 39.3893H104.227L104.616 37.2203Z" fill="black"/>
<path d="M109.986 40.7962H108.662C105.801 40.7962 104.672 41.3433 104.204 44.0399L103.445 48.417C103.367 48.8859 103.309 49.3745 103.309 49.7848C103.309 51.3676 104.204 52.0124 106.734 52.0124H110.316L111.114 50.0388H107.202C106.073 50.0388 105.722 49.8825 105.722 49.1986C105.722 48.9837 105.761 48.671 105.819 48.3388L105.917 47.7331H110.199C111.815 47.7331 112.457 47.1273 112.768 45.3882L113.041 43.8446C113.099 43.5319 113.119 43.2192 113.119 42.9848C113.119 41.3433 112.029 40.7962 109.986 40.7962ZM110.627 43.8446L110.413 45.1147C110.335 45.6227 110.121 45.8377 109.577 45.8377H106.267L106.579 44.0399C106.793 42.8675 107.221 42.7503 108.117 42.7503H109.498C110.394 42.7503 110.686 42.8675 110.686 43.3365C110.686 43.4733 110.667 43.6101 110.627 43.8446Z" fill="black"/>
<path d="M121.192 40.933H115.839L113.912 52.0124H116.325L117.902 42.9457H120.744C121.659 42.9457 121.951 43.0824 121.951 43.7663C121.951 44.0595 121.893 44.548 121.756 45.3101L120.569 52.0124H122.982L124.15 45.3101C124.345 44.1767 124.461 43.4537 124.461 42.9262C124.461 41.5192 123.683 40.933 121.192 40.933Z" fill="black"/>
<path d="M129.643 52.0124H132.854L133.691 50.0388H130.285C129 50.0388 128.572 49.8826 128.572 49.0423C128.572 48.6906 128.65 48.2021 128.806 47.3618L129.273 44.7629C129.546 43.2974 129.838 42.9066 131.258 42.9066H134.178L134.995 40.933H131.395C128.144 40.933 127.385 41.656 126.84 44.802L126.393 47.3618C126.217 48.3583 126.139 49.0032 126.139 49.4526C126.139 51.309 127.171 52.0124 129.643 52.0124Z" fill="black"/>
<path d="M142.337 40.7962H141.014C138.152 40.7962 137.023 41.3433 136.556 44.0399L135.797 48.417C135.719 48.8859 135.661 49.3745 135.661 49.7848C135.661 51.3676 136.556 52.0124 139.087 52.0124H142.668L143.466 50.0388H139.554C138.425 50.0388 138.074 49.8825 138.074 49.1986C138.074 48.9837 138.114 48.671 138.172 48.3388L138.269 47.7331H142.551C144.167 47.7331 144.809 47.1273 145.121 45.3882L145.393 43.8446C145.452 43.5319 145.471 43.2192 145.471 42.9848C145.471 41.3433 144.381 40.7962 142.337 40.7962ZM142.98 43.8446L142.765 45.1147C142.688 45.6227 142.474 45.8377 141.928 45.8377H138.62L138.931 44.0399C139.145 42.8675 139.573 42.7503 140.469 42.7503H141.851C142.746 42.7503 143.038 42.8675 143.038 43.3365C143.038 43.4733 143.019 43.6101 142.98 43.8446Z" fill="black"/>
<path d="M153.544 40.933H148.191L146.264 52.0124H148.678L150.255 42.9457H153.096C154.011 42.9457 154.303 43.0824 154.303 43.7663C154.303 44.0595 154.244 44.548 154.108 45.3101L152.921 52.0124H155.335L156.502 45.3101C156.697 44.1767 156.814 43.4537 156.814 42.9262C156.814 41.5192 156.035 40.933 153.544 40.933Z" fill="black"/>
<path d="M162.697 42.9066H165.792L166.142 40.933H163.047L163.631 37.6502H161.217L160.633 40.933H159.173L158.843 42.9066H160.283L159.407 47.8894C159.29 48.5147 159.193 49.1986 159.193 49.7067C159.193 51.4262 160.283 52.0124 162.463 52.0124H163.884L164.721 50.0388H163.397C162.132 50.0388 161.645 50.0193 161.645 49.2377C161.645 48.9251 161.723 48.417 161.82 47.8894L162.697 42.9066Z" fill="black"/>
<path d="M170.674 52.0125H174.45L175.365 49.8435H171.745C170.11 49.8435 169.428 49.6676 169.428 48.6124C169.428 48.0848 169.584 47.1078 169.817 45.8572L170.518 41.9491C170.868 40.0146 171.141 39.3893 172.698 39.3893H176.357L177.253 37.2203H172.386C169.564 37.2203 168.61 38.0411 168.085 41.0307L167.073 46.6975C166.858 47.8699 166.8 48.5147 166.8 49.1009C166.8 51.2699 167.949 52.0125 170.674 52.0125Z" fill="black"/>
<path d="M180.635 52.0124H182.017L182.854 50.0388H181.725C180.46 50.0388 179.973 50.0193 179.973 49.2572C179.973 48.8468 180.09 48.2021 180.246 47.3618L182.173 36.4192H179.759L177.832 47.3618C177.657 48.3583 177.52 49.1791 177.52 49.8434C177.52 51.5043 178.474 52.0124 180.635 52.0124Z" fill="black"/>
<path d="M187.75 52.1492H189.093C192.344 52.1492 193.103 51.4457 193.648 48.3193L194.154 45.4468C194.33 44.4503 194.407 43.8054 194.407 43.356C194.407 41.4802 193.376 40.7962 190.903 40.7962H189.561C186.31 40.7962 185.551 41.4997 185.006 44.6262L184.5 47.4986C184.325 48.4952 184.247 49.14 184.247 49.5894C184.247 51.4653 185.279 52.1492 187.75 52.1492ZM188.373 50.1756C187.089 50.1756 186.68 50.0193 186.68 49.1791C186.68 48.8273 186.758 48.3388 186.913 47.4986L187.42 44.6262C187.673 43.1997 187.926 42.7503 189.405 42.7503H190.28C191.546 42.7503 191.974 42.9066 191.974 43.7468C191.974 44.0986 191.897 44.5871 191.741 45.4273L191.234 48.2997C190.982 49.7262 190.728 50.1756 189.249 50.1756H188.373Z" fill="black"/>
<path d="M204.31 40.933L202.714 49.9997H199.755C198.84 49.9997 198.549 49.863 198.549 49.1791C198.549 48.886 198.607 48.3974 198.743 47.6353L199.93 40.933H197.517L196.349 47.6353C196.154 48.7687 196.037 49.4917 196.037 50.0193C196.037 51.4262 196.816 52.0124 199.307 52.0124H204.777L206.724 40.933H204.31Z" fill="black"/>
<path d="M216.709 36.4192L215.911 40.933H213.244C210.014 40.933 209.216 41.656 208.69 44.7629L208.242 47.3618C208.067 48.3583 207.989 49.0032 207.989 49.4526C207.989 51.309 209.021 52.0124 211.493 52.0124H216.378L219.123 36.4192H216.709ZM212.155 50.0388C210.889 50.0388 210.442 49.8826 210.442 49.0423C210.442 48.6906 210.5 48.2411 210.656 47.4009L211.123 44.7629C211.376 43.2974 211.687 42.9066 213.109 42.9066H215.561L214.315 50.0388H212.155Z" fill="black"/>
<path d="M227.545 49.9802H224.567C222.932 49.9802 222.271 49.8239 222.271 48.7492C222.271 48.2411 222.426 47.2446 222.64 45.994L223.38 41.9101C223.73 39.956 224.022 39.3502 225.579 39.3502H230.913L231.788 37.2203H225.268C222.426 37.2203 221.473 38.0411 220.947 41.0307L219.915 46.8342C219.701 48.0067 219.623 48.671 219.623 49.2377C219.623 51.4067 220.791 52.1492 223.516 52.1492H226.436C227.72 52.1492 228.538 52.0711 229.122 51.6607C229.803 51.1722 230.115 50.2342 230.446 48.3388L231.185 44.1767H228.577L227.545 49.9802Z" fill="black"/>
<path d="M243.586 37.2203H233.775L233.386 39.3893H236.987L234.769 52.0125H237.396L239.615 39.3893H243.196L243.586 37.2203Z" fill="black"/>
<path d="M243.392 52.0125H247.927C250.555 52.0125 251.684 51.6802 252.151 49.0423L252.501 47.0882C252.579 46.6779 252.754 45.525 252.754 44.9779C252.754 43.5123 251.704 43.2778 250.049 43.2778H247.557C247.013 43.2778 246.74 43.1802 246.74 42.848C246.74 42.6721 246.798 42.2813 246.896 41.7732L247.129 40.5617C247.323 39.5652 247.479 39.3698 248.375 39.3698H253.105L254 37.2203H248.239C245.805 37.2203 245.046 37.7675 244.638 40.1123L244.267 42.1836C244.17 42.7503 244.092 43.2583 244.092 43.6882C244.092 44.9192 244.618 45.525 246.195 45.525H249.095C249.796 45.525 250.069 45.5641 250.069 45.994C250.069 46.2089 250.029 46.6388 249.893 47.3227L249.698 48.3388C249.446 49.7067 249.251 49.8435 247.966 49.8435H243.003L243.392 52.0125Z" fill="black"/>
</g>
</g>
<defs>
<filter id="filter0_d_21_193" x="0" y="0" width="1946" height="92" filterUnits="userSpaceOnUse" color-interpolation-filters="sRGB">
<feFlood flood-opacity="0" result="BackgroundImageFix"/>
<feColorMatrix in="SourceAlpha" type="matrix" values="0 0 0 0 0 0 0 0 0 0 0 0 0 0 0 0 0 0 127 0" result="hardAlpha"/>
<feMorphology radius="1" operator="dilate" in="SourceAlpha" result="effect1_dropShadow_21_193"/>
<feOffset dy="4"/>
<feGaussianBlur stdDeviation="6"/>
<feComposite in2="hardAlpha" operator="out"/>
<feColorMatrix type="matrix" values="0 0 0 0 0 0 0 0 0 0 0 0 0 0 0 0 0 0 0.1 0"/>
<feBlend mode="normal" in2="BackgroundImageFix" result="effect1_dropShadow_21_193"/>
<feBlend mode="normal" in="SourceGraphic" in2="effect1_dropShadow_21_193" result="shape"/>
</filter>
<linearGradient id="paint0_linear_21_193" x1="45.8558" y1="38.5391" x2="74.4254" y2="57.9801" gradientUnits="userSpaceOnUse">
<stop stop-color="#00A3FF"/>
<stop offset="1" stop-color="#006EFF"/>
</linearGradient>
<clipPath id="clip0_21_193">
<rect width="225" height="41" fill="white" transform="translate(29 22)"/>
</clipPath>
</defs>
</svg>
