<svg width="17" height="13" viewBox="0 0 17 13" fill="none" xmlns="http://www.w3.org/2000/svg">
<path d="M16.8157 0.00151005L12.7259 0.494264C12.5904 0.510689 12.5329 0.676994 12.6294 0.773491L13.8469 1.991L9.20678 6.63111L7.11668 4.54306C6.98734 4.41371 6.77997 4.41577 6.65267 4.54306L0.0477151 11.1501C0.0171475 11.1809 0 11.2226 0 11.2661C0 11.3095 0.0171475 11.3512 0.0477151 11.3821L0.971629 12.3101C1.03528 12.3737 1.13999 12.3737 1.20363 12.3101L6.88468 6.63111L8.97272 8.71915C9.10207 8.84645 9.30944 8.84645 9.43673 8.71915L15.009 3.15103L16.2265 4.36854C16.2483 4.39025 16.2758 4.40541 16.3058 4.41228C16.3358 4.41915 16.3671 4.41746 16.3962 4.4074C16.4253 4.39735 16.451 4.37933 16.4703 4.35541C16.4897 4.33148 16.5019 4.3026 16.5057 4.27205L16.9985 0.182186C17.0128 0.0774761 16.9225 -0.0128619 16.8157 0.00151005Z" fill="#FB8424"/>
</svg>
