<svg width="18" height="18" viewBox="0 0 18 18" fill="none" xmlns="http://www.w3.org/2000/svg">
<path d="M12.6 7.19999C9.89323 7.19999 7.65224 9.19123 7.26074 11.79H4.67999C4.33124 11.79 4.04999 11.5087 4.04999 11.16V2.96999H10.5975C10.917 3.76199 11.6932 4.31999 12.6 4.31999C13.7925 4.31999 14.76 3.35249 14.76 2.16C14.76 0.967498 13.7925 0 12.6 0C11.6932 0 10.917 0.557999 10.5975 1.35H0V2.96999H2.43V11.16C2.43 12.402 3.43799 13.41 4.67999 13.41H7.26074C7.65224 16.0087 9.89323 18 12.6 18C15.5812 18 18 15.5812 18 12.6C18 9.61873 15.5812 7.19999 12.6 7.19999ZM15.48 13.185C15.48 13.284 15.399 13.365 15.3 13.365H13.365V15.3C13.365 15.399 13.284 15.48 13.185 15.48H12.015C11.916 15.48 11.835 15.399 11.835 15.3V13.365H9.89998C9.80098 13.365 9.71998 13.284 9.71998 13.185V12.015C9.71998 11.916 9.80098 11.835 9.89998 11.835H11.835V9.89998C11.835 9.80098 11.916 9.71998 12.015 9.71998H13.185C13.284 9.71998 13.365 9.80098 13.365 9.89998V11.835H15.3C15.399 11.835 15.48 11.916 15.48 12.015V13.185Z" fill="#006EFF"/>
</svg>
