<svg width="16" height="15" viewBox="0 0 16 15" fill="none" xmlns="http://www.w3.org/2000/svg">
<path d="M15.8333 13.1667H1.5V0.166666C1.5 0.0749999 1.425 0 1.33333 0H0.166667C0.0749999 0 0 0.0749999 0 0.166666V14.5C0 14.5917 0.0749999 14.6667 0.166667 14.6667H15.8333C15.925 14.6667 16 14.5917 16 14.5V13.3333C16 13.2417 15.925 13.1667 15.8333 13.1667ZM3 11.8333H14.1667C14.2583 11.8333 14.3333 11.7583 14.3333 11.6667V2.58333C14.3333 2.43333 14.1521 2.36041 14.0479 2.46458L9.66666 6.84583L7.05416 4.2625C7.02284 4.23148 6.98053 4.21408 6.93645 4.21408C6.89237 4.21408 6.85007 4.23148 6.81874 4.2625L2.88125 8.21249C2.86595 8.22781 2.85385 8.24601 2.84562 8.26603C2.8374 8.28606 2.83322 8.30751 2.83333 8.32916V11.6667C2.83333 11.7583 2.90833 11.8333 3 11.8333Z" fill="black"/>
</svg>
