<svg width="17" height="14" viewBox="0 0 17 14" fill="none" xmlns="http://www.w3.org/2000/svg">
<path d="M16.6353 0.411765H4.61177C4.52118 0.411765 4.44706 0.485883 4.44706 0.576471V1.72941C4.44706 1.82 4.52118 1.89412 4.61177 1.89412H16.6353C16.7259 1.89412 16.8 1.82 16.8 1.72941V0.576471C16.8 0.485883 16.7259 0.411765 16.6353 0.411765ZM16.6353 6.25883H4.61177C4.52118 6.25883 4.44706 6.33295 4.44706 6.42353V7.57648C4.44706 7.66706 4.52118 7.74118 4.61177 7.74118H16.6353C16.7259 7.74118 16.8 7.66706 16.8 7.57648V6.42353C16.8 6.33295 16.7259 6.25883 16.6353 6.25883ZM16.6353 12.1059H4.61177C4.52118 12.1059 4.44706 12.18 4.44706 12.2706V13.4235C4.44706 13.5141 4.52118 13.5882 4.61177 13.5882H16.6353C16.7259 13.5882 16.8 13.5141 16.8 13.4235V12.2706C16.8 12.18 16.7259 12.1059 16.6353 12.1059ZM0 1.15294C-2.25613e-09 1.30435 0.0298218 1.45427 0.0877625 1.59415C0.145703 1.73404 0.230628 1.86113 0.337689 1.9682C0.44475 2.07526 0.571849 2.16018 0.71173 2.21812C0.851612 2.27606 1.00154 2.30588 1.15294 2.30588C1.30435 2.30588 1.45427 2.27606 1.59415 2.21812C1.73404 2.16018 1.86113 2.07526 1.9682 1.9682C2.07526 1.86113 2.16018 1.73404 2.21812 1.59415C2.27606 1.45427 2.30588 1.30435 2.30588 1.15294C2.30588 1.00154 2.27606 0.851612 2.21812 0.71173C2.16018 0.571849 2.07526 0.44475 1.9682 0.337689C1.86113 0.230628 1.73404 0.145703 1.59415 0.0877624C1.45427 0.0298216 1.30435 0 1.15294 0C1.00154 0 0.851612 0.0298216 0.71173 0.0877624C0.571849 0.145703 0.44475 0.230628 0.337689 0.337689C0.230628 0.44475 0.145703 0.571849 0.0877625 0.71173C0.0298218 0.851612 -2.25613e-09 1.00154 0 1.15294ZM0 7C-2.25613e-09 7.15141 0.0298218 7.30134 0.0877625 7.44122C0.145703 7.5811 0.230628 7.7082 0.337689 7.81526C0.44475 7.92232 0.571849 8.00724 0.71173 8.06518C0.851612 8.12313 1.00154 8.15295 1.15294 8.15295C1.30435 8.15295 1.45427 8.12313 1.59415 8.06518C1.73404 8.00724 1.86113 7.92232 1.9682 7.81526C2.07526 7.7082 2.16018 7.5811 2.21812 7.44122C2.27606 7.30134 2.30588 7.15141 2.30588 7C2.30588 6.8486 2.27606 6.69867 2.21812 6.55879C2.16018 6.41891 2.07526 6.29181 1.9682 6.18475C1.86113 6.07769 1.73404 5.99277 1.59415 5.93483C1.45427 5.87689 1.30435 5.84706 1.15294 5.84706C1.00154 5.84706 0.851612 5.87689 0.71173 5.93483C0.571849 5.99277 0.44475 6.07769 0.337689 6.18475C0.230628 6.29181 0.145703 6.41891 0.0877625 6.55879C0.0298218 6.69867 -2.25613e-09 6.8486 0 7ZM0 12.8471C-2.25613e-09 12.9985 0.0298218 13.1484 0.0877625 13.2883C0.145703 13.4282 0.230628 13.5553 0.337689 13.6623C0.44475 13.7694 0.571849 13.8543 0.71173 13.9122C0.851612 13.9702 1.00154 14 1.15294 14C1.30435 14 1.45427 13.9702 1.59415 13.9122C1.73404 13.8543 1.86113 13.7694 1.9682 13.6623C2.07526 13.5553 2.16018 13.4282 2.21812 13.2883C2.27606 13.1484 2.30588 12.9985 2.30588 12.8471C2.30588 12.6957 2.27606 12.5457 2.21812 12.4059C2.16018 12.266 2.07526 12.1389 1.9682 12.0318C1.86113 11.9248 1.73404 11.8398 1.59415 11.7819C1.45427 11.7239 1.30435 11.6941 1.15294 11.6941C1.00154 11.6941 0.851612 11.7239 0.71173 11.7819C0.571849 11.8398 0.44475 11.9248 0.337689 12.0318C0.230628 12.1389 0.145703 12.266 0.0877625 12.4059C0.0298218 12.5457 -2.25613e-09 12.6957 0 12.8471Z" fill="white"/>
</svg>
