<svg width="16" height="16" viewBox="0 0 16 16" fill="none" xmlns="http://www.w3.org/2000/svg">
<path d="M15.818 13.7528H0.182023C0.0808992 13.7528 0 13.8337 0 13.9326V15.2809C0 15.3798 0.0808992 15.4607 0.182023 15.4607H15.818C15.9191 15.4607 16 15.3798 16 15.2809V13.9326C16 13.8337 15.9191 13.7528 15.818 13.7528ZM7.85845 11.2585C7.87526 11.2799 7.89675 11.2973 7.92128 11.3093C7.94581 11.3212 7.97273 11.3274 8.00002 11.3274C8.0273 11.3274 8.05423 11.3212 8.07876 11.3093C8.10329 11.2973 8.12478 11.2799 8.14159 11.2585L10.6585 8.07417C10.7506 7.95732 10.6674 7.78429 10.5169 7.78429H8.85171V0.179776C8.85171 0.0808991 8.77081 0 8.67193 0H7.32361C7.22474 0 7.14384 0.0808991 7.14384 0.179776V7.78204H5.48316C5.3326 7.78204 5.24945 7.95507 5.34159 8.07193L7.85845 11.2585Z" fill="#979797"/>
</svg>
