<svg width="16" height="18" viewBox="0 0 16 18" fill="none" xmlns="http://www.w3.org/2000/svg">
<path d="M13.193 5.25176C13.193 2.35059 10.8424 0 7.94123 0C5.04005 0 2.68946 2.35059 2.68946 5.25176C2.68946 7.00517 3.54923 8.55953 4.87064 9.51247C4.86217 9.5167 4.85582 9.51882 4.85158 9.52094C3.90499 9.92117 3.05582 10.4951 2.32523 11.2278C1.59886 11.9528 1.02058 12.8123 0.622641 13.7583C0.231116 14.6847 0.0198138 15.6773 5.29539e-05 16.6828C-0.000512257 16.7054 0.00345204 16.7279 0.0117124 16.749C0.0199727 16.77 0.0323618 16.7892 0.0481498 16.8054C0.0639378 16.8215 0.0828051 16.8344 0.10364 16.8432C0.124475 16.852 0.146856 16.8565 0.169465 16.8565H1.43793C1.52899 16.8565 1.60523 16.7823 1.60735 16.6913C1.6497 15.0565 2.30405 13.5254 3.4624 12.3649C4.65887 11.1642 6.24711 10.5035 7.94123 10.5035C10.8424 10.5035 13.193 8.15294 13.193 5.25176ZM7.94123 8.89412C5.92946 8.89412 4.29888 7.26353 4.29888 5.25176C4.29888 3.24 5.92946 1.60941 7.94123 1.60941C9.95299 1.60941 11.5836 3.24 11.5836 5.25176C11.5836 7.26353 9.95299 8.89412 7.94123 8.89412ZM10.1648 13.5741H15.7553C15.8485 13.5741 15.9248 13.4979 15.9248 13.4047V12.2188C15.9248 12.1256 15.8485 12.0494 15.7553 12.0494H12.0177L13.0172 10.7767C13.0403 10.747 13.0529 10.7105 13.0532 10.6729C13.0532 10.5798 12.977 10.5035 12.8838 10.5035H11.3464C11.2426 10.5035 11.1452 10.5522 11.0796 10.6327L9.62899 12.4772C9.53581 12.5958 9.48499 12.744 9.48499 12.8965C9.48711 13.2713 9.78993 13.5741 10.1648 13.5741ZM15.2471 14.9294H9.65652C9.56334 14.9294 9.48711 15.0056 9.48711 15.0988V16.2847C9.48711 16.3779 9.56334 16.4541 9.65652 16.4541H13.3942L12.3946 17.7268C12.3716 17.7565 12.3589 17.793 12.3586 17.8306C12.3586 17.9238 12.4349 18 12.528 18H14.0655C14.1692 18 14.2666 17.9513 14.3323 17.8708L15.7829 16.0263C15.876 15.9078 15.9269 15.7595 15.9269 15.6071C15.9248 15.2322 15.6219 14.9294 15.2471 14.9294Z" fill="#2281FD"/>
</svg>
