<svg width="18" height="18" viewBox="0 0 18 18" fill="none" xmlns="http://www.w3.org/2000/svg">
<path d="M5.34375 4.92188H12.6562C12.7336 4.92188 12.7969 4.85859 12.7969 4.78125C12.7969 4.07812 12.6422 3.43301 12.3416 2.88105C12.0393 2.32734 11.5945 1.88262 11.0408 1.58027C10.4889 1.27969 9.84375 1.125 9.14062 1.125H8.85938C8.15625 1.125 7.51113 1.27969 6.95918 1.58027C6.40547 1.88262 5.96074 2.32734 5.6584 2.88105C5.35781 3.43301 5.20312 4.07812 5.20312 4.78125C5.20312 4.85859 5.26641 4.92188 5.34375 4.92188Z" fill="black"/>
<path d="M16.5234 9H13.9219V7.24219C15.2719 7.24219 16.3652 6.14883 16.3652 4.79883C16.3652 4.72148 16.302 4.6582 16.2246 4.6582H15.1699C15.0926 4.6582 15.0293 4.72148 15.0293 4.79883C15.0293 5.41055 14.5336 5.90625 13.9219 5.90625H4.07812C3.46641 5.90625 2.9707 5.41055 2.9707 4.79883C2.9707 4.72148 2.90742 4.6582 2.83008 4.6582H1.77539C1.69805 4.6582 1.63477 4.72148 1.63477 4.79883C1.63477 6.14883 2.72812 7.24219 4.07812 7.24219V9H1.47656C1.39922 9 1.33594 9.06328 1.33594 9.14062V10.125C1.33594 10.2023 1.39922 10.2656 1.47656 10.2656H4.07812V11.9531C4.07812 12.0674 4.08164 12.1816 4.09043 12.2924C2.88457 12.8074 2.03906 14.0045 2.03906 15.3984C2.03906 15.4758 2.10234 15.5391 2.17969 15.5391H3.16406C3.24141 15.5391 3.30469 15.4758 3.30469 15.3984C3.30469 14.6215 3.7248 13.9412 4.35234 13.5756C4.45781 13.8779 4.59141 14.1662 4.75137 14.4369C5.17852 15.1664 5.78848 15.7764 6.51797 16.2035C7.02598 16.5006 7.59023 16.7098 8.19316 16.81C8.27051 16.81 8.33379 16.7467 8.33379 16.6693V8.50781C8.33379 8.43047 8.39707 8.36719 8.47441 8.36719H9.5291C9.60645 8.36719 9.66973 8.43047 9.66973 8.50781V16.6676C9.66973 16.7449 9.73301 16.8082 9.81035 16.8082C10.4133 16.708 10.9775 16.4988 11.4855 16.2018C12.215 15.7746 12.825 15.1646 13.2521 14.4352C13.4121 14.1627 13.5457 13.8744 13.6512 13.5738C14.2752 13.9412 14.6953 14.6215 14.6953 15.3984C14.6953 15.4758 14.7586 15.5391 14.8359 15.5391H15.8203C15.8977 15.5391 15.9609 15.4758 15.9609 15.3984C15.9609 14.0045 15.1154 12.8074 13.9096 12.2924C13.9166 12.1799 13.9219 12.0674 13.9219 11.9531V10.2656H16.5234C16.6008 10.2656 16.6641 10.2023 16.6641 10.125V9.14062C16.6641 9.06328 16.6008 9 16.5234 9Z" fill="black"/>
</svg>
